<?xml version="1.0" ?><svg enable-background="new 0 0 136 231.9995" id="houzz" version="1.1" viewBox="0 0 136 231.9995" xml:space="preserve" xmlns="http://www.w3.org/2000/svg" xmlns:xlink="http://www.w3.org/1999/xlink"><path d="M136,46.7731c0-1.4376-0.7717-2.762-2.0197-3.4768c-1.248-0.7068-2.7832-0.6992-4.0176,0.0352L72,77.6307V3.9995  c0-1.3868-0.7189-2.672-1.8965-3.4024c-1.1816-0.7304-2.6524-0.7928-3.8928-0.1756l-64,32C0.8555,33.1011,0,34.4839,0,35.9995v76  c0,1.0164,0.3863,1.9792,1.0575,2.7084C0.3979,115.4339,0,116.3759,0,117.3863v70.6132c0,1.4376,0.7715,2.7616,2.0195,3.4764  c0.6132,0.348,1.2968,0.5236,1.9805,0.5236c0.7051,0,1.4099-0.1876,2.0371-0.5584L64,157.1379v70.8616  c0,1.3516,0.6815,2.6092,1.8103,3.3476c0.6604,0.4336,1.424,0.6524,2.1897,0.6524c0.5447,0,1.0899-0.1092,1.6035-0.336l64-28  c1.4548-0.6368,2.3965-2.074,2.3965-3.664v-80c0-0.4552-0.1025-0.8888-0.2485-1.306c0.146-0.4172,0.2485-0.8512,0.2485-1.3072  V46.7731z M128,53.7887v56.582L80.1915,82.0775L128,53.7887z M8,38.4723l56-28v70.91l-56,24.5V38.4723z M8,180.9839v-56.582  l47.8083,28.2892L8,180.9839z M66.2107,148.4215c-0.326,0.1636-0.6192,0.3716-0.8824,0.6084l-57.8056-34.206l62.0808-27.1604  c0.7412-0.3244,1.344-0.8596,1.7624-1.514l54.6748,32.3572L66.2107,148.4215z M128,197.3823l-56,24.5v-67.41l56-28V197.3823z"/></svg>